<svg xmlns="http://www.w3.org/2000/svg" width="38" height="38" viewBox="0 0 38 38"><g><g opacity="1"><path fill="#404041" d="M33.25 34.435s-6.398 1.781-13.072 3.563h-2.405A1841.39 1841.39 0 0 1 4.75 34.435C2.238 33.619 0 32.309 0 29.685V4.746a4.75 4.75 0 0 1 4.75-4.75s7.072 1.968 13.023 3.563c.784 0 1.572.03 2.356 0 6.247-1.67 13.12-3.562 13.12-3.562A4.75 4.75 0 0 1 38 4.747v24.937c0 2.625-2.311 4.12-4.75 4.751zM4.75 2.373a2.375 2.375 0 0 0-2.375 2.374v24.937c0 1.313 1.026 2.005 2.375 2.376 0 0 6.577 1.816 13.062 3.56V5.934zm30.875 2.374a2.375 2.375 0 0 0-2.375-2.374L20.187 5.934v29.66c6.6-1.735 13.063-3.534 13.063-3.534 1.274-.408 2.375-1.063 2.375-2.376z"/></g></g></svg>