<svg xmlns="http://www.w3.org/2000/svg" width="40" height="40" viewBox="0 0 40 40"><g><g opacity="1"><path fill="#404041" d="M38.75 24.998h-7.5a1.25 1.25 0 0 1 0-2.5h7.5a1.249 1.249 0 1 1 0 2.5zm0-7.5h-10a1.25 1.25 0 1 1 0-2.5h10a1.25 1.25 0 0 1 0 2.5zm0-7.5h-10a1.25 1.25 0 0 1 0-2.5h10a1.25 1.25 0 0 1 0 2.5zm-11.25 17.5v5a7.5 7.5 0 0 1-7.5 7.5H7.5a7.5 7.5 0 0 1-7.5-7.5v-5c0-3.283 2.124-6.044 5.062-7.06-1.6-2.16-2.562-4.925-2.562-7.94 0-6.904 5.037-12.5 11.25-12.5S25 5.594 25 12.498c0 3.015-.961 5.78-2.562 7.94 2.938 1.016 5.062 3.777 5.062 7.06zm-5-15c0-5.523-3.918-10-8.75-10-4.833 0-8.75 4.477-8.75 10s3.917 10 8.75 10c4.832 0 8.75-4.477 8.75-10zM25 28.123c0-2.657-2.017-4.87-4.72-5.46-1.842 1.466-4.092 2.336-6.53 2.336-2.438 0-4.688-.87-6.53-2.335-2.703.588-4.72 2.802-4.72 5.46v3.75c0 3.107 2.747 5.624 6.136 5.624h10.228c3.389 0 6.136-2.517 6.136-5.624zm6.25 1.876h7.5a1.25 1.25 0 1 1 0 2.5h-7.5a1.25 1.25 0 0 1 0-2.5z"/></g></g></svg>