<?xml version="1.0" encoding="utf-8"?><svg viewBox="0 0 450.62 450.62" xmlns="http://www.w3.org/2000/svg" xmlns:xlink="http://www.w3.org/1999/xlink"><style>:root>svg{display:none}:root>svg:target{display:block}</style><svg viewBox="0 0 450.619 450.619" id="btwit" xmlns="http://www.w3.org/2000/svg"><path fill="#fff" d="M449.224 92.392a6.088 6.088 0 00.342-7.302 6.089 6.089 0 00-6.918-2.37 196.383 196.383 0 01-37.236 8.224 99.552 99.552 0 0036.381-38.515 6.088 6.088 0 00-8.048-8.323 195.593 195.593 0 01-47.529 15.999c-17.954-19.28-43.509-31.329-71.808-31.329-54.311 0-98.367 44.422-98.367 99.225 0 7.763.873 15.33 2.563 22.609-74.352-3.771-141.058-36.795-189.015-87.905a13.552 13.552 0 00-12.981-3.921 13.546 13.546 0 00-9.883 9.288 99.964 99.964 0 00-4.201 28.749c0 34.445 15.236 64.809 41.625 82.602-7.125-.23-17.07-2.438-25.951-4.827a14.411 14.411 0 00-13.889 3.678A14.414 14.414 0 00.51 192.125c9.564 37.023 40.707 65.873 78.008 73.432-8.277 2.275-15.883 3.482-24.86 3.482h-.009a11.306 11.306 0 00-9.768 5.612 11.305 11.305 0 00-.063 11.262c16.696 29.52 48.12 49.6 84.018 50.282-33.668 26.599-75.961 42.45-122.029 42.45h-.085a5.718 5.718 0 00-2.682 10.768c38.881 20.67 83.181 32.432 130.182 32.432 180.923 0 279.884-151.216 279.884-282.331 0-4.318-.094-8.565-.281-12.836a200.7 200.7 0 0036.399-34.286z"/></svg><svg fill="none" viewBox="0 0 12 20" id="fb" xmlns="http://www.w3.org/2000/svg"><path d="M10.999.004L8.405 0C5.492 0 3.61 1.932 3.61 4.922v2.27H1a.408.408 0 00-.408.407v3.288c0 .226.183.408.408.408H3.61v8.297c0 .225.182.408.408.408h3.402a.408.408 0 00.408-.408v-8.297h3.049a.408.408 0 00.407-.408l.002-3.288a.408.408 0 00-.408-.408h-3.05V5.268c0-.925.22-1.394 1.424-1.394L11 3.873a.408.408 0 00.407-.408V.412A.408.408 0 0011 .004z" fill="#fff"/></svg><svg viewBox="0 0 32 40" id="step-work1" xmlns="http://www.w3.org/2000/svg"><path fill="#404041" d="M27.077 39.997H4.923C2.204 39.997 0 37.76 0 34.998v-30c0-2.762 2.204-5 4.923-5h14.77c1.647-.026 2.302.035 2.46.035v-.035l9.847 10v25c0 2.761-2.204 5-4.923 5zm-4.923-37.5v5c0 1.38 1.102 2.501 2.461 2.501h4.924zm7.385 10h-4.924c-2.719 0-4.923-2.239-4.923-5 0 0-.057-2.005-.035-5H4.923c-1.36 0-2.461 1.12-2.461 2.5v30.001c0 1.38 1.102 2.5 2.461 2.5h22.154c1.36 0 2.462-1.12 2.462-2.5zm-6.154 17.5H8.615c-.68 0-1.23-.56-1.23-1.25s.55-1.25 1.23-1.25h14.77c.68 0 1.23.56 1.23 1.25s-.55 1.25-1.23 1.25zm0-7.5H8.615c-.68 0-1.23-.56-1.23-1.249 0-.69.55-1.25 1.23-1.25h14.77c.68 0 1.23.56 1.23 1.25s-.55 1.25-1.23 1.25z"/></svg><svg viewBox="0 0 40 40" id="step-work2" xmlns="http://www.w3.org/2000/svg"><path fill="#404041" d="M38.75 24.998h-7.5a1.25 1.25 0 010-2.5h7.5a1.249 1.249 0 110 2.5zm0-7.5h-10a1.25 1.25 0 110-2.5h10a1.25 1.25 0 010 2.5zm0-7.5h-10a1.25 1.25 0 010-2.5h10a1.25 1.25 0 010 2.5zm-11.25 17.5v5a7.5 7.5 0 01-7.5 7.5H7.5a7.5 7.5 0 01-7.5-7.5v-5c0-3.283 2.124-6.044 5.062-7.06-1.6-2.16-2.562-4.925-2.562-7.94 0-6.904 5.037-12.5 11.25-12.5S25 5.594 25 12.498c0 3.015-.961 5.78-2.562 7.94 2.938 1.016 5.062 3.777 5.062 7.06zm-5-15c0-5.523-3.918-10-8.75-10-4.833 0-8.75 4.477-8.75 10s3.917 10 8.75 10c4.832 0 8.75-4.477 8.75-10zM25 28.123c0-2.657-2.017-4.87-4.72-5.46-1.842 1.466-4.092 2.336-6.53 2.336-2.438 0-4.688-.87-6.53-2.335-2.703.588-4.72 2.802-4.72 5.46v3.75c0 3.107 2.747 5.624 6.136 5.624h10.228c3.389 0 6.136-2.517 6.136-5.624zm6.25 1.876h7.5a1.25 1.25 0 110 2.5h-7.5a1.25 1.25 0 010-2.5z"/></svg><svg viewBox="0 0 38 38" id="step-work3" xmlns="http://www.w3.org/2000/svg"><path fill="#404041" d="M33.25 34.435s-6.398 1.781-13.072 3.563h-2.405A1841.39 1841.39 0 014.75 34.435C2.238 33.619 0 32.309 0 29.685V4.746a4.75 4.75 0 014.75-4.75s7.072 1.968 13.023 3.563c.784 0 1.572.03 2.356 0 6.247-1.67 13.12-3.562 13.12-3.562A4.75 4.75 0 0138 4.747v24.937c0 2.625-2.311 4.12-4.75 4.751zM4.75 2.373a2.375 2.375 0 00-2.375 2.374v24.937c0 1.313 1.026 2.005 2.375 2.376 0 0 6.577 1.816 13.062 3.56V5.934zm30.875 2.374a2.375 2.375 0 00-2.375-2.374L20.187 5.934v29.66c6.6-1.735 13.063-3.534 13.063-3.534 1.274-.408 2.375-1.063 2.375-2.376z"/></svg><svg viewBox="0 0 38 38" id="step-work4" xmlns="http://www.w3.org/2000/svg"><path fill="#404041" d="M19 37.997c-10.493 0-19-8.505-19-19 0-10.493 8.507-19 19-19s19 8.507 19 19c0 10.495-8.507 19-19 19zm0-35.623c-9.182 0-16.625 7.441-16.625 16.623 0 9.182 7.443 16.625 16.625 16.625s16.625-7.443 16.625-16.625c0-9.181-7.443-16.623-16.625-16.623zm.548 24.27a1.16 1.16 0 01-.295.478 1.189 1.189 0 01-1.678-.055l-5.43-5.007a1.188 1.188 0 011.734-1.624l4.249 3.919L25.722 11.2a1.187 1.187 0 012.057 1.188z"/></svg><svg viewBox="0 0 81 7" id="title-line" xmlns="http://www.w3.org/2000/svg"><path fill="#191919" d="M70.54 6.999l-5.006-5.162-5.007 5.162-5.007-5.162-5.007 5.162-5.006-5.162L40.5 6.999l-5.007-5.162-5.007 5.162-5.006-5.162-5.007 5.162-5.007-5.162-5.007 5.162-5.007-5.162-4.56 4.702L0 5.619 5.452-.002 10.46 5.16l5.007-5.162 5.007 5.162L25.48-.002l5.006 5.162 5.007-5.162L40.5 5.16l5.007-5.162 5.006 5.162L55.52-.002l5.007 5.162 5.007-5.162L70.54 5.16l5.006-5.162L81 5.619l-.892.92-4.56-4.702z" opacity=".2"/></svg><svg viewBox="0 0 64 64" id="twit" xmlns="http://www.w3.org/2000/svg"><path class="hst1" fill="#fff" d="M24.6 48.3c15.1 0 23.3-12.5 23.3-23.3v-1.1c1.6-1.2 3-2.6 4.1-4.2-1.5.7-3.1 1.1-4.7 1.3 1.7-1 3-2.6 3.6-4.5-1.6.9-3.3 1.6-5.2 2-1.5-1.6-3.6-2.6-6-2.6-4.5 0-8.2 3.7-8.2 8.2 0 .6.1 1.3.2 1.9-6.8-.3-12.9-3.6-16.9-8.6-.7 1.2-1.1 2.6-1.1 4.1 0 2.8 1.4 5.4 3.7 6.8-1.3 0-2.6-.4-3.7-1v.1c0 4 2.8 7.3 6.6 8-.7.2-1.4.3-2.2.3-.5 0-1-.1-1.5-.1 1 3.3 4.1 5.6 7.7 5.7-2.8 2.2-6.3 3.5-10.2 3.5-.7 0-1.3 0-2-.1 3.5 2.2 7.8 3.6 12.5 3.6"/></svg><svg fill="none" viewBox="0 0 20 12" id="vk" xmlns="http://www.w3.org/2000/svg"><path d="M19.172 9.509c-.596-.714-1.297-1.324-1.96-1.971-.598-.584-.636-.922-.155-1.596.525-.734 1.09-1.441 1.62-2.173.493-.684.999-1.365 1.259-2.184.165-.521.019-.751-.515-.842a1.648 1.648 0 00-.281-.017L15.97.722c-.39-.006-.606.165-.744.51-.186.468-.379.935-.6 1.386-.504 1.023-1.067 2.012-1.855 2.85-.174.184-.367.418-.657.322-.364-.133-.47-.732-.465-.935l-.003-3.657c-.07-.523-.186-.756-.705-.857H7.65c-.44 0-.66.17-.894.445-.135.159-.176.262.102.314.546.104.854.458.936 1.005.13.876.122 1.755.046 2.633a2.448 2.448 0 01-.168.752c-.16.377-.416.454-.754.222-.305-.21-.52-.506-.73-.803a17.685 17.685 0 01-1.933-3.582C4.106.96 3.85.74 3.463.734a80.777 80.777 0 00-2.852 0c-.572.012-.743.29-.51.808C1.137 3.845 2.29 6.084 3.794 8.124c.772 1.047 1.66 1.971 2.805 2.626 1.299.743 2.696.966 4.168.897.69-.032.897-.211.929-.898.021-.47.075-.938.307-1.36.227-.415.572-.494.97-.236.198.13.365.294.524.467.388.424.762.862 1.164 1.272.505.514 1.104.818 1.856.756h2.913c.469-.03.712-.606.443-1.13-.19-.366-.438-.693-.701-1.01z" fill="#fff"/></svg></svg>