<svg xmlns="http://www.w3.org/2000/svg" width="123" height="134" viewBox="0 0 123 134"><defs><mask id="ob4pb" width="2" height="2" x="-1" y="-1"><path fill="#fff" d="M4 0h115v125H4z"/><path d="M75.838 4.99c11.53 5.901 19.841 10.546 30.618 16.531 10.43 5.196 12.551 11.57 12.527 24.683 0 11.887.036 21.074 0 34.459.044 13.37-2.616 15.57-13.216 22.493a2120.827 2120.827 0 0 1-29.929 17.13c-9.88 6.41-18.219 6.148-27.234 0-11.011-5.974-18.962-10.548-29.929-17.13C8.08 96.686 4.22 91.746 4.033 79.073c.03-12.09-.098-20.75 0-32.87C3.996 33.78 8.245 27.17 18.675 22.123 29.871 15.078 37.593 10.644 48.604 4.99c12.113-6.641 15.19-6.691 27.234 0z"/></mask><filter id="ob4pa" width="145" height="160" x="-11" y="-15" filterUnits="userSpaceOnUse"><feOffset dy="5" in="SourceGraphic" result="FeOffset1023Out"/><feGaussianBlur in="FeOffset1023Out" result="FeGaussianBlur1024Out" stdDeviation="2 2"/></filter></defs><g><g opacity="1"><g filter="url(#ob4pa)"><path fill="none" d="M75.838 4.99c11.53 5.901 19.841 10.546 30.618 16.531 10.43 5.196 12.551 11.57 12.527 24.683 0 11.887.036 21.074 0 34.459.044 13.37-2.616 15.57-13.216 22.493a2120.827 2120.827 0 0 1-29.929 17.13c-9.88 6.41-18.219 6.148-27.234 0-11.011-5.974-18.962-10.548-29.929-17.13C8.08 96.686 4.22 91.746 4.033 79.073c.03-12.09-.098-20.75 0-32.87C3.996 33.78 8.245 27.17 18.675 22.123 29.871 15.078 37.593 10.644 48.604 4.99c12.113-6.641 15.19-6.691 27.234 0z" mask="url(&quot;#ob4pb&quot;)"/><path fill-opacity=".19" d="M75.838 4.99c11.53 5.901 19.841 10.546 30.618 16.531 10.43 5.196 12.551 11.57 12.527 24.683 0 11.887.036 21.074 0 34.459.044 13.37-2.616 15.57-13.216 22.493a2120.827 2120.827 0 0 1-29.929 17.13c-9.88 6.41-18.219 6.148-27.234 0-11.011-5.974-18.962-10.548-29.929-17.13C8.08 96.686 4.22 91.746 4.033 79.073c.03-12.09-.098-20.75 0-32.87C3.996 33.78 8.245 27.17 18.675 22.123 29.871 15.078 37.593 10.644 48.604 4.99c12.113-6.641 15.19-6.691 27.234 0z"/></g><path fill="#fff" d="M75.838 4.99c11.53 5.901 19.841 10.546 30.618 16.531 10.43 5.196 12.551 11.57 12.527 24.683 0 11.887.036 21.074 0 34.459.044 13.37-2.616 15.57-13.216 22.493a2120.827 2120.827 0 0 1-29.929 17.13c-9.88 6.41-18.219 6.148-27.234 0-11.011-5.974-18.962-10.548-29.929-17.13C8.08 96.686 4.22 91.746 4.033 79.073c.03-12.09-.098-20.75 0-32.87C3.996 33.78 8.245 27.17 18.675 22.123 29.871 15.078 37.593 10.644 48.604 4.99c12.113-6.641 15.19-6.691 27.234 0z"/></g></g></svg>